<svg width="24" height="24" viewBox="0 0 24 24" fill="none" xmlns="http://www.w3.org/2000/svg">
<g clip-path="url(#clip0_1_4924)">
<path fill-rule="evenodd" clip-rule="evenodd" d="M3.95711 2.54289C3.56658 2.15237 2.93342 2.15237 2.54289 2.54289C2.15237 2.93342 2.15237 3.56658 2.54289 3.95711L10.5858 12L2.54289 20.0429C2.15237 20.4334 2.15237 21.0666 2.54289 21.4571C2.93342 21.8476 3.56658 21.8476 3.95711 21.4571L12 13.4142L20.0429 21.4571C20.4334 21.8476 21.0666 21.8476 21.4571 21.4571C21.8476 21.0666 21.8476 20.4334 21.4571 20.0429L13.4142 12L21.4571 3.95711C21.8476 3.56658 21.8476 2.93342 21.4571 2.54289C21.0666 2.15237 20.4334 2.15237 20.0429 2.54289L12 10.5858L3.95711 2.54289Z" fill="#F9F9F9"/>
</g>
<defs>
<clipPath id="clip0_1_4924">
<rect width="24" height="24" rx="12" fill="white"/>
</clipPath>
</defs>
</svg>
